<svg xmlns="http://www.w3.org/2000/svg" viewBox="0 0 186 171" width="186" height="171">
	<style>
		tspan { white-space:pre }
		.shp0 { fill: #f0b90b } 
		.shp1 { fill: #fffdfa } 
		.shp2 { opacity: 0.102;mix-blend-mode: multiply;fill: none;stroke: #191326;stroke-width: 3 } 
		.shp3 { opacity: 0.2;mix-blend-mode: multiply;fill: none;stroke: #191326;stroke-width: 2.837 } 
	</style>
	<g id="BNB">
		<path id="Layer" class="shp0" d="M46.5 93C20.79 93 0 72.21 0 46.5C0 20.79 20.79 0 46.5 0C72.21 0 93 20.79 93 46.5C93 72.21 72.21 93 46.5 93Z" />
		<path id="Layer" fill-rule="evenodd" class="shp1" d="M29.16 46.5L22.04 53.66L14.88 46.5L22.04 39.34L29.16 46.5ZM34.3 41.41L27.13 34.25L46.5 14.88L53.67 22.04L65.92 34.25L58.75 41.41L46.5 29.16L34.3 41.41ZM78.12 46.5L71.01 53.66L63.84 46.5L70.96 39.34L78.12 46.5ZM58.75 51.59L65.92 58.7L46.5 78.12L27.13 58.75L34.25 51.59L46.5 63.84L58.75 51.59ZM46.5 53.66L39.34 46.5L46.5 39.34L53.66 46.5L46.5 53.66Z" />
		<path id="Layer" class="shp2" d="M46.5 90.59C22.12 90.59 2.41 70.88 2.41 46.5C2.41 22.12 22.12 2.41 46.5 2.41C70.88 2.41 90.59 22.12 90.59 46.5C90.59 70.88 70.88 90.59 46.5 90.59Z" />
	</g>
	<g id="BUSD">
		<path id="Layer" class="shp0" d="M121 168C86.16 168 58 139.84 58 105C58 70.16 86.16 42 121 42C155.84 42 184 70.16 184 105C184 139.84 155.84 168 121 168Z" />
		<path id="Layer" fill-rule="evenodd" class="shp1" d="M121.03 62.16L131.73 72.86L104.89 99.7L94.19 89L121.03 62.16ZM94.21 121.07L137.1 78.18L147.8 88.88L104.91 131.77L94.21 121.07ZM153.14 94.25L163.84 104.95L120.95 147.84L110.25 137.14L153.14 94.25L153.14 94.25ZM78.16 105.02L88.86 94.32L99.56 105.02L88.86 115.72L78.16 105.02Z" />
		<path id="Layer" class="shp3" d="M121 165.95C87.3 165.95 60.05 138.7 60.05 105C60.05 71.3 87.3 44.05 121 44.05C154.7 44.05 181.95 71.3 181.95 105C181.95 138.7 154.7 165.95 121 165.95Z" />
	</g>
</svg>