<svg xmlns="http://www.w3.org/2000/svg" viewBox="0 0 186 171" width="186" height="171">
	<style>
		tspan { white-space:pre }
		.shp0 { fill: #f0b90b } 
		.shp1 { fill: #fffdfa } 
		.shp2 { opacity: 0.102;mix-blend-mode: multiply;fill: none;stroke: #191326;stroke-width: 3 } 
		.shp3 { fill: #f5f3f3 } 
		.shp4 { fill: #2f3030 } 
		.shp5 { fill: #191326 } 
		.shp6 { fill: #828384 } 
		.shp7 { fill: #343535 } 
		.shp8 { opacity: 0.2;mix-blend-mode: multiply;fill: none;stroke: #191326;stroke-width: 2.837 } 
	</style>
	<g id="BNB">
		<path id="Layer" class="shp0" d="M46.5 93C20.79 93 0 72.21 0 46.5C0 20.79 20.79 0 46.5 0C72.21 0 93 20.79 93 46.5C93 72.21 72.21 93 46.5 93Z" />
		<path id="Layer" fill-rule="evenodd" class="shp1" d="M29.16 46.5L22.04 53.66L14.88 46.5L22.04 39.34L29.16 46.5ZM34.3 41.41L27.13 34.25L46.5 14.88L53.67 22.04L65.92 34.25L58.75 41.41L46.5 29.16L34.3 41.41ZM78.12 46.5L71.01 53.66L63.84 46.5L70.96 39.34L78.12 46.5ZM58.75 51.59L65.92 58.7L46.5 78.12L27.13 58.75L34.25 51.59L46.5 63.84L58.75 51.59ZM46.5 53.66L39.34 46.5L46.5 39.34L53.66 46.5L46.5 53.66Z" />
		<path id="Layer" class="shp2" d="M46.5 90.59C22.12 90.59 2.41 70.88 2.41 46.5C2.41 22.12 22.12 2.41 46.5 2.41C70.88 2.41 90.59 22.12 90.59 46.5C90.59 70.88 70.88 90.59 46.5 90.59Z" />
	</g>
	<g id="ETH">
		<path id="Layer" class="shp3" d="M121.5 167C86.94 167 59 139.06 59 104.5C59 69.94 86.94 42 121.5 42C156.06 42 184 69.94 184 104.5C184 139.06 156.06 167 121.5 167Z" />
		<path id="Layer" class="shp4" d="M121.5 126.6L121.5 148.37L148.29 110.75L121.5 126.6Z" />
		<path id="Layer" class="shp5" d="M121.5 93.01L121.5 121.03L148.29 105.18L121.5 93.01Z" />
		<path id="Layer" class="shp4" d="M121.5 60.75L121.5 93.01L148.29 105.18L121.5 60.75Z" />
		<path id="Layer" class="shp6" d="M121.5 126.6L121.5 148.37L94.71 110.75L121.5 126.6Z" />
		<path id="Layer" class="shp7" d="M121.5 93.01L121.5 121.03L94.71 105.18L121.5 93.01Z" />
		<path id="Layer" class="shp6" d="M121.5 60.75L121.5 93.01L94.71 105.18L121.5 60.75Z" />
		<path id="Layer" class="shp8" d="M121.5 164.96C88.06 164.96 61.04 137.94 61.04 104.5C61.04 71.06 88.06 44.04 121.5 44.04C154.94 44.04 181.96 71.06 181.96 104.5C181.96 137.94 154.94 164.96 121.5 164.96Z" />
	</g>
</svg>