<svg xmlns="http://www.w3.org/2000/svg" viewBox="0 0 186 171" width="186" height="171">
	<style>
		tspan { white-space:pre }
		.shp0 { fill: #f0b90b } 
		.shp1 { fill: #fffdfa } 
		.shp2 { opacity: 0.102;mix-blend-mode: multiply;fill: none;stroke: #191326;stroke-width: 3 } 
		.shp3 { fill: #9787c9 } 
		.shp4 { fill: #483674 } 
		.shp5 { fill: #fac24b } 
		.shp6 { fill: #fc5454 } 
		.shp7 { fill: #362751 } 
		.shp8 { fill: #bbd4ff } 
	</style>
	<g id="Folder 1">
		<path id="Layer" class="shp0" d="M46.5 93C20.79 93 0 72.21 0 46.5C0 20.79 20.79 0 46.5 0C72.21 0 93 20.79 93 46.5C93 72.21 72.21 93 46.5 93Z" />
		<path id="Layer" fill-rule="evenodd" class="shp1" d="M29.16 46.5L22.04 53.66L14.88 46.5L22.04 39.34L29.16 46.5ZM34.3 41.41L27.13 34.25L46.5 14.88L53.67 22.04L65.92 34.25L58.75 41.41L46.5 29.16L34.3 41.41ZM78.12 46.5L71.01 53.66L63.84 46.5L70.96 39.34L78.12 46.5ZM58.75 51.59L65.92 58.7L46.5 78.12L27.13 58.75L34.25 51.59L46.5 63.84L58.75 51.59ZM46.5 53.66L39.34 46.5L46.5 39.34L53.66 46.5L46.5 53.66Z" />
		<path id="Layer" class="shp2" d="M46.5 90.59C22.12 90.59 2.41 70.88 2.41 46.5C2.41 22.12 22.12 2.41 46.5 2.41C70.88 2.41 90.59 22.12 90.59 46.5C90.59 70.88 70.88 90.59 46.5 90.59Z" />
	</g>
	<g id="Layer 1">
		<path id="&lt;Path&gt;" class="shp3" d="M186 106C186 141.9 156.9 171 121 171C85.1 171 56 141.9 56 106C56 70.1 85.1 41 121 41C156.9 41 186 70.1 186 106Z" />
		<g id="&lt;Group&gt;">
			<g id="&lt;Group&gt;">
				<path id="&lt;Path&gt;" class="shp4" d="M144.03 149.68L90.94 149.68L90.94 59.51L150.6 59.51L150.6 143.1C150.6 146.73 147.66 149.68 144.03 149.68Z" />
			</g>
			<g id="&lt;Group&gt;">
				<path id="&lt;Path&gt;" class="shp5" d="M112.8 116.91L108.46 116.91L108.46 112.57L103.88 112.57L103.88 116.91L99.54 116.91L99.54 121.48L103.88 121.48L103.88 125.82L108.46 125.82L108.46 121.48L112.8 121.48L112.8 116.91Z" />
			</g>
			<path id="&lt;Path&gt;" class="shp6" d="M132.22 125.94L129.54 125.94C128.76 125.94 128.12 125.3 128.12 124.52L128.12 121.84C128.12 121.06 128.76 120.42 129.54 120.42L132.22 120.42C133.01 120.42 133.64 121.06 133.64 121.84L133.64 124.52C133.64 125.3 133.01 125.94 132.22 125.94Z" />
			<path id="&lt;Path&gt;" class="shp7" d="M99.57 99.94L99.57 69.84C99.57 69 100.25 68.32 101.09 68.32L141.45 68.32C142.29 68.32 142.97 69 142.97 69.84L142.97 99.94C142.97 100.78 142.29 101.46 141.45 101.46L101.09 101.46C100.25 101.46 99.57 100.78 99.57 99.94Z" />
			<path id="&lt;Path&gt;" class="shp7" d="M138.27 97.68L104.27 97.68C103.77 97.68 103.36 97.27 103.36 96.77L103.36 73.01C103.36 72.51 103.77 72.1 104.27 72.1L138.27 72.1C138.77 72.1 139.18 72.51 139.18 73.01L139.18 96.77C139.18 97.27 138.77 97.68 138.27 97.68Z" />
			<path id="&lt;Path&gt;" class="shp8" d="M104.94 97.68L116.79 97.68L139.18 75.29L139.18 73.67C139.17 72.81 138.48 72.11 137.62 72.1L125.4 72.1L103.36 94.14L103.36 96.1C103.36 96.97 104.07 97.68 104.94 97.68Z" />
			<path id="&lt;Path&gt;" class="shp8" d="M139.16 85.27L126.75 97.68L134.98 97.68L139.16 93.5L139.16 85.27Z" />
			<path id="&lt;Compound Path&gt;" fill-rule="evenodd" class="shp7" d="M151.62 61.32L151.62 140.62C151.62 147.71 145.87 153.47 138.78 153.47L92.95 153.47C91.45 153.47 90.24 152.25 90.24 150.76L90.24 61.32C90.24 59.83 91.45 58.62 92.95 58.62L148.92 58.62C150.41 58.62 151.62 59.83 151.62 61.32ZM147.84 64.89C147.84 63.52 146.72 62.4 145.35 62.4L96.52 62.4C95.14 62.4 94.03 63.52 94.03 64.89L94.03 147.19C94.03 148.57 95.14 149.68 96.52 149.68L138.05 149.68C143.46 149.68 147.84 145.3 147.84 139.89L147.84 64.89Z" />
			<path id="&lt;Path&gt;" class="shp6" d="M139.16 117.66C139.16 119.19 137.92 120.42 136.4 120.42C134.87 120.42 133.64 119.19 133.64 117.66C133.64 116.14 134.87 114.91 136.4 114.91C137.92 114.91 139.16 116.14 139.16 117.66Z" />
		</g>
	</g>
</svg>